<svg width="280" height="200" viewBox="0 0 280 200" fill="none" xmlns="http://www.w3.org/2000/svg">
  <rect width="280" height="200" fill="#F1F5F9"/>
  <path d="M140 80C135.582 80 132 83.582 132 88C132 92.418 135.582 96 140 96C144.418 96 148 92.418 148 88C148 83.582 144.418 80 140 80ZM140 94C136.686 94 134 91.314 134 88C134 84.686 136.686 82 140 82C143.314 82 146 84.686 146 88C146 91.314 143.314 94 140 94Z" fill="#94A3B8"/>
  <path d="M152 76H128C126.897 76 126 76.897 126 78V98C126 99.103 126.897 100 128 100H152C153.103 100 154 99.103 154 98V78C154 76.897 153.103 76 152 76ZM152 98H128V78H152V98Z" fill="#94A3B8"/>
  <path d="M130 96L134 92L136 94L146 84L150 88V96H130Z" fill="#94A3B8"/>
  <text x="140" y="120" text-anchor="middle" font-family="system-ui" font-size="14" fill="#64748B">No image available</text>
</svg>