<svg width="500" height="500" viewBox="0 0 500 500" fill="none" xmlns="http://www.w3.org/2000/svg">
  <path d="M250 450C360.457 450 450 360.457 450 250C450 139.543 360.457 50 250 50C139.543 50 50 139.543 50 250C50 360.457 139.543 450 250 450Z" fill="#FFF1F2" fill-opacity="0.5"/>
  <path d="M250 400C332.843 400 400 332.843 400 250C400 167.157 332.843 100 250 100C167.157 100 100 167.157 100 250C100 332.843 167.157 400 250 400Z" fill="#FDA4AF" fill-opacity="0.2"/>
  <path d="M250 350C305.228 350 350 305.228 350 250C350 194.772 305.228 150 250 150C194.772 150 150 194.772 150 250C150 305.228 194.772 350 250 350Z" fill="#FB7185" fill-opacity="0.1"/>
  <path d="M215 200H285C297.15 200 307 209.85 307 222V278C307 290.15 297.15 300 285 300H215C202.85 300 193 290.15 193 278V222C193 209.85 202.85 200 215 200Z" stroke="#F43F5E" stroke-width="10" stroke-linecap="round" stroke-linejoin="round"/>
  <path d="M307 222L250 261L193 222" stroke="#F43F5E" stroke-width="10" stroke-linecap="round" stroke-linejoin="round"/>
</svg>