<svg width="200" height="150" viewBox="0 0 200 150" xmlns="http://www.w3.org/2000/svg">
  <!-- Header Background -->
  <rect x="0" y="0" width="200" height="30" fill="#1a73e8"/>
  
  <!-- Logo -->
  <rect x="10" y="8" width="30" height="14" fill="#ffffff" rx="2"/>
  
  <!-- Navigation -->
  <rect x="50" y="10" width="15" height="10" fill="#ffffff" rx="2"/>
  <rect x="70" y="10" width="15" height="10" fill="#ffffff" rx="2"/>
  <rect x="90" y="10" width="15" height="10" fill="#ffffff" rx="2"/>
  
  <!-- Social Icons -->
  <circle cx="170" cy="15" r="4" fill="#ffffff"/>
  <circle cx="185" cy="15" r="4" fill="#ffffff"/>
  
  <!-- Top News Grid -->
  <rect x="10" y="35" width="85" height="50" fill="#e0e0e0" rx="3"/>
  <rect x="105" y="35" width="85" height="50" fill="#e0e0e0" rx="3"/>
  
  <!-- Mid News Section -->
  <rect x="10" y="90" width="55" height="35" fill="#f0f0f0" rx="3"/>
  <rect x="72" y="90" width="55" height="35" fill="#f0f0f0" rx="3"/>
  <rect x="135" y="90" width="55" height="35" fill="#f0f0f0" rx="3"/>
  
  <!-- Trending & Latest News Indicators -->
  <rect x="10" y="130" width="85" height="15" fill="#f5f5f5" rx="2"/>
  <rect x="105" y="130" width="85" height="15" fill="#f5f5f5" rx="2"/>
</svg>