<svg width="200" height="150" viewBox="0 0 200 150" xmlns="http://www.w3.org/2000/svg">
  <!-- Header Background -->
  <rect x="0" y="0" width="200" height="40" fill="#ffffff"/>
  <line x1="0" y1="40" x2="200" y2="40" stroke="#e0e0e0" stroke-width="1"/>
  
  <!-- Logo -->
  <rect x="10" y="10" width="35" height="20" fill="#2563eb" rx="2"/>
  
  <!-- Navigation -->
  <g transform="translate(55,15)">
    <rect x="0" y="0" width="15" height="10" fill="#64748b" rx="2"/>
    <rect x="25" y="0" width="15" height="10" fill="#64748b" rx="2"/>
    <rect x="50" y="0" width="15" height="10" fill="#64748b" rx="2"/>
  </g>
  
  <!-- Social Icons -->
  <g transform="translate(160,13)">
    <circle cx="0" cy="7" r="4" fill="#2563eb"/>
    <circle cx="20" cy="7" r="4" fill="#2563eb"/>
  </g>
  
  <!-- Main Featured News -->
  <rect x="10" y="50" width="85" height="90" fill="#e0e0e0" rx="4">
    <animate attributeName="opacity" values="1;0.8;1" dur="2s" repeatCount="indefinite"/>
  </rect>
  
  <!-- Secondary News Grid -->
  <g transform="translate(105,50)">
    <rect x="0" y="0" width="40" height="42" fill="#f0f0f0" rx="3"/>
    <rect x="45" y="0" width="40" height="42" fill="#f0f0f0" rx="3"/>
    <rect x="0" y="48" width="40" height="42" fill="#f0f0f0" rx="3"/>
    <rect x="45" y="48" width="40" height="42" fill="#f0f0f0" rx="3"/>
  </g>
</svg>